<svg width="18" height="160" viewBox="0 0 112 160" fill="none" xmlns="http://www.w3.org/2000/svg">
<g filter="url(#filter0_f_9_293)">
<path d="M42.6201 122.709L69.4939 122.836L69.3751 149.832L42.5014 149.705L42.6201 122.709ZM10 55.2973C10.7995 37.5525 16.8368 25.0013 28.1119 17.6437C35.2269 12.9444 43.9548 10.6191 54.2955 10.6679C67.8826 10.732 79.1404 14.148 88.0688 20.9159C97.0572 27.6841 101.522 37.6693 101.464 50.8714C101.429 58.9671 99.4449 65.7769 95.5127 71.3009C93.2133 74.653 88.8056 78.9292 82.2896 84.1296L75.8642 89.237C72.3649 92.0229 70.0359 95.2814 68.8772 99.0125C68.1453 101.375 67.7384 105.048 67.6564 110.029L43.3076 109.915C43.7146 99.3919 44.7085 92.1415 46.2891 88.1633C47.8701 84.1229 51.9185 79.5024 58.4345 74.302L65.0411 69.0086C67.2128 67.3374 68.9644 65.5086 70.2958 63.522C72.7157 60.1083 73.9347 56.3463 73.9528 52.2362C73.9736 47.5034 72.6398 43.2001 69.9513 39.3263C67.3233 35.3905 62.4622 33.4059 55.368 33.3724C48.394 33.3395 43.4235 35.7137 40.4566 40.4949C37.5497 45.2764 36.0849 50.2515 36.0622 55.4203L10 55.2973Z" fill="#EA5D5D"/>
</g>
<defs>
<filter id="filter0_f_9_293" x="0" y="0.667114" width="111.465" height="159.165" filterUnits="userSpaceOnUse" color-interpolation-filters="sRGB">
<feFlood flood-opacity="0" result="BackgroundImageFix"/>
<feBlend mode="normal" in="SourceGraphic" in2="BackgroundImageFix" result="shape"/>
<feGaussianBlur stdDeviation="5" result="effect1_foregroundBlur_9_293"/>
</filter>
</defs>
</svg>
