<svg width="20" height="249" viewBox="0 0 171 249" fill="none" xmlns="http://www.w3.org/2000/svg">
<g filter="url(#filter0_f_9_291)">
<path d="M63.5528 193.95L107.672 194.158L107.477 238.478L63.3579 238.27L63.5528 193.95ZM10 83.2796C11.3126 54.1477 21.2241 33.5423 39.7345 21.4632C51.4153 13.7482 65.744 9.93071 82.7204 10.0108C105.027 10.1161 123.509 15.7242 138.167 26.8351C152.923 37.9466 160.254 54.3394 160.158 76.0135C160.1 89.3043 156.843 100.484 150.387 109.553C146.612 115.056 139.376 122.076 128.679 130.614L118.13 138.999C112.385 143.572 108.562 148.922 106.659 155.047C105.458 158.927 104.79 164.956 104.655 173.134L64.6816 172.945C65.3498 155.67 66.9814 143.767 69.5763 137.236C72.1718 130.603 78.8182 123.017 89.5156 114.48L100.362 105.79C103.927 103.046 106.803 100.043 108.988 96.7821C112.961 91.1778 114.962 85.0018 114.992 78.2541C115.026 70.4841 112.837 63.4193 108.423 57.0597C104.108 50.5983 96.1278 47.3401 84.4812 47.2852C73.032 47.2311 64.8719 51.1288 60.0009 58.9782C55.2287 66.8281 52.8239 74.9958 52.7866 83.4815L10 83.2796Z" fill="#F9BA18"/>
</g>
<defs>
<filter id="filter0_f_9_291" x="0" y="0.00958252" width="170.159" height="248.468" filterUnits="userSpaceOnUse" color-interpolation-filters="sRGB">
<feFlood flood-opacity="0" result="BackgroundImageFix"/>
<feBlend mode="normal" in="SourceGraphic" in2="BackgroundImageFix" result="shape"/>
<feGaussianBlur stdDeviation="5" result="effect1_foregroundBlur_9_291"/>
</filter>
</defs>
</svg>
