<svg width="13" height="180" viewBox="0 0 124 180" fill="none" xmlns="http://www.w3.org/2000/svg">
<g filter="url(#filter0_f_9_292)">
<path d="M47.0906 138.262L77.6474 138.407L77.5124 169.139L46.9556 168.995L47.0906 138.262ZM10 61.5198C10.9091 41.3189 17.7738 27.0304 30.5941 18.6544C38.6842 13.3046 48.6082 10.6575 60.366 10.713C75.8153 10.786 88.616 14.6748 98.7679 22.3795C108.988 30.0845 114.065 41.4518 113.999 56.4813C113.959 65.6976 111.703 73.45 107.232 79.7385C104.618 83.5545 99.6058 88.4227 92.1968 94.3429L84.8908 100.157C80.9119 103.329 78.2637 107.038 76.9462 111.286C76.114 113.976 75.6513 118.156 75.558 123.828L47.8724 123.697C48.3352 111.718 49.4652 103.464 51.2625 98.9349C53.0601 94.3352 57.6634 89.0752 65.0724 83.155L72.5844 77.1289C75.0537 75.2264 77.0454 73.1444 78.5592 70.8829C81.3107 66.9967 82.6968 62.714 82.7173 58.035C82.741 52.6471 81.2244 47.7481 78.1675 43.3382C75.1793 38.8576 69.652 36.5983 61.5856 36.5602C53.6558 36.5227 48.0042 39.2255 44.6306 44.6685C41.3253 50.1119 39.6598 55.7756 39.6339 61.6598L10 61.5198Z" fill="#00D5E2"/>
</g>
<defs>
<filter id="filter0_f_9_292" x="0" y="0.712158" width="124" height="178.427" filterUnits="userSpaceOnUse" color-interpolation-filters="sRGB">
<feFlood flood-opacity="0" result="BackgroundImageFix"/>
<feBlend mode="normal" in="SourceGraphic" in2="BackgroundImageFix" result="shape"/>
<feGaussianBlur stdDeviation="5" result="effect1_foregroundBlur_9_292"/>
</filter>
</defs>
</svg>
