<svg width="28" height="250" viewBox="0 0 171 250" fill="none" xmlns="http://www.w3.org/2000/svg">
<g filter="url(#filter0_f_9_290)">
<path d="M63.5528 194.814L107.672 195.022L107.477 239.341L63.3579 239.133L63.5528 194.814ZM10 84.1431C11.3126 55.0113 21.2241 34.4058 39.7345 22.3267C51.4153 14.6117 65.744 10.7942 82.7204 10.8743C105.027 10.9796 123.509 16.5877 138.167 27.6987C152.923 38.8101 160.254 55.2029 160.158 76.8771C160.1 90.1678 156.843 101.348 150.387 110.416C146.612 115.919 139.376 122.94 128.679 131.477L118.13 139.862C112.385 144.436 108.562 149.785 106.659 155.911C105.458 159.79 104.79 165.819 104.655 173.998L64.6816 173.809C65.3498 156.534 66.9814 144.631 69.5763 138.1C72.1718 131.466 78.8182 123.881 89.5156 115.343L100.362 106.653C103.927 103.909 106.803 100.907 108.988 97.6457C112.961 92.0413 114.962 85.8653 114.992 79.1177C115.026 71.3477 112.837 64.2829 108.423 57.9232C104.108 51.4618 96.1278 48.2036 84.4812 48.1487C73.032 48.0947 64.8719 51.9923 60.0009 59.8417C55.2287 67.6916 52.8239 75.8594 52.7866 84.345L10 84.1431Z" fill="#2FC18C"/>
</g>
<defs>
<filter id="filter0_f_9_290" x="0" y="0.873108" width="170.159" height="248.468" filterUnits="userSpaceOnUse" color-interpolation-filters="sRGB">
<feFlood flood-opacity="0" result="BackgroundImageFix"/>
<feBlend mode="normal" in="SourceGraphic" in2="BackgroundImageFix" result="shape"/>
<feGaussianBlur stdDeviation="5" result="effect1_foregroundBlur_9_290"/>
</filter>
</defs>
</svg>
